<svg xmlns="http://www.w3.org/2000/svg" viewBox="0 0 720 900" width="720" height="900" role="img" aria-hidden="false">
  <rect width="720" height="900" fill="#071530"/>
  <g><line x1="0" y1="0" x2="0" y2="900" stroke="rgba(245,196,0,0.28)" stroke-width="0.5"/><line x1="30" y1="0" x2="30" y2="900" stroke="rgba(245,196,0,0.28)" stroke-width="0.5"/><line x1="60" y1="0" x2="60" y2="900" stroke="rgba(245,196,0,0.28)" stroke-width="0.5"/><line x1="90" y1="0" x2="90" y2="900" stroke="rgba(245,196,0,0.28)" stroke-width="0.5"/><line x1="120" y1="0" x2="120" y2="900" stroke="rgba(245,196,0,0.28)" stroke-width="0.5"/><line x1="150" y1="0" x2="150" y2="900" stroke="rgba(245,196,0,0.28)" stroke-width="0.5"/><line x1="180" y1="0" x2="180" y2="900" stroke="rgba(245,196,0,0.28)" stroke-width="0.5"/><line x1="210" y1="0" x2="210" y2="900" stroke="rgba(245,196,0,0.28)" stroke-width="0.5"/><line x1="240" y1="0" x2="240" y2="900" stroke="rgba(245,196,0,0.28)" stroke-width="0.5"/><line x1="270" y1="0" x2="270" y2="900" stroke="rgba(245,196,0,0.28)" stroke-width="0.5"/><line x1="300" y1="0" x2="300" y2="900" stroke="rgba(245,196,0,0.28)" stroke-width="0.5"/><line x1="330" y1="0" x2="330" y2="900" stroke="rgba(245,196,0,0.28)" stroke-width="0.5"/><line x1="360" y1="0" x2="360" y2="900" stroke="rgba(245,196,0,0.28)" stroke-width="0.5"/><line x1="390" y1="0" x2="390" y2="900" stroke="rgba(245,196,0,0.28)" stroke-width="0.5"/><line x1="420" y1="0" x2="420" y2="900" stroke="rgba(245,196,0,0.28)" stroke-width="0.5"/><line x1="450" y1="0" x2="450" y2="900" stroke="rgba(245,196,0,0.28)" stroke-width="0.5"/><line x1="480" y1="0" x2="480" y2="900" stroke="rgba(245,196,0,0.28)" stroke-width="0.5"/><line x1="510" y1="0" x2="510" y2="900" stroke="rgba(245,196,0,0.28)" stroke-width="0.5"/><line x1="540" y1="0" x2="540" y2="900" stroke="rgba(245,196,0,0.28)" stroke-width="0.5"/><line x1="570" y1="0" x2="570" y2="900" stroke="rgba(245,196,0,0.28)" stroke-width="0.5"/><line x1="600" y1="0" x2="600" y2="900" stroke="rgba(245,196,0,0.28)" stroke-width="0.5"/><line x1="630" y1="0" x2="630" y2="900" stroke="rgba(245,196,0,0.28)" stroke-width="0.5"/><line x1="660" y1="0" x2="660" y2="900" stroke="rgba(245,196,0,0.28)" stroke-width="0.5"/><line x1="690" y1="0" x2="690" y2="900" stroke="rgba(245,196,0,0.28)" stroke-width="0.5"/><line x1="720" y1="0" x2="720" y2="900" stroke="rgba(245,196,0,0.28)" stroke-width="0.5"/><line x1="0" y1="0" x2="720" y2="0" stroke="rgba(245,196,0,0.28)" stroke-width="0.5"/><line x1="0" y1="30" x2="720" y2="30" stroke="rgba(245,196,0,0.28)" stroke-width="0.5"/><line x1="0" y1="60" x2="720" y2="60" stroke="rgba(245,196,0,0.28)" stroke-width="0.5"/><line x1="0" y1="90" x2="720" y2="90" stroke="rgba(245,196,0,0.28)" stroke-width="0.5"/><line x1="0" y1="120" x2="720" y2="120" stroke="rgba(245,196,0,0.28)" stroke-width="0.5"/><line x1="0" y1="150" x2="720" y2="150" stroke="rgba(245,196,0,0.28)" stroke-width="0.5"/><line x1="0" y1="180" x2="720" y2="180" stroke="rgba(245,196,0,0.28)" stroke-width="0.5"/><line x1="0" y1="210" x2="720" y2="210" stroke="rgba(245,196,0,0.28)" stroke-width="0.5"/><line x1="0" y1="240" x2="720" y2="240" stroke="rgba(245,196,0,0.28)" stroke-width="0.5"/><line x1="0" y1="270" x2="720" y2="270" stroke="rgba(245,196,0,0.28)" stroke-width="0.5"/><line x1="0" y1="300" x2="720" y2="300" stroke="rgba(245,196,0,0.28)" stroke-width="0.5"/><line x1="0" y1="330" x2="720" y2="330" stroke="rgba(245,196,0,0.28)" stroke-width="0.5"/><line x1="0" y1="360" x2="720" y2="360" stroke="rgba(245,196,0,0.28)" stroke-width="0.5"/><line x1="0" y1="390" x2="720" y2="390" stroke="rgba(245,196,0,0.28)" stroke-width="0.5"/><line x1="0" y1="420" x2="720" y2="420" stroke="rgba(245,196,0,0.28)" stroke-width="0.5"/><line x1="0" y1="450" x2="720" y2="450" stroke="rgba(245,196,0,0.28)" stroke-width="0.5"/><line x1="0" y1="480" x2="720" y2="480" stroke="rgba(245,196,0,0.28)" stroke-width="0.5"/><line x1="0" y1="510" x2="720" y2="510" stroke="rgba(245,196,0,0.28)" stroke-width="0.5"/><line x1="0" y1="540" x2="720" y2="540" stroke="rgba(245,196,0,0.28)" stroke-width="0.5"/><line x1="0" y1="570" x2="720" y2="570" stroke="rgba(245,196,0,0.28)" stroke-width="0.5"/><line x1="0" y1="600" x2="720" y2="600" stroke="rgba(245,196,0,0.28)" stroke-width="0.5"/><line x1="0" y1="630" x2="720" y2="630" stroke="rgba(245,196,0,0.28)" stroke-width="0.5"/><line x1="0" y1="660" x2="720" y2="660" stroke="rgba(245,196,0,0.28)" stroke-width="0.5"/><line x1="0" y1="690" x2="720" y2="690" stroke="rgba(245,196,0,0.28)" stroke-width="0.5"/><line x1="0" y1="720" x2="720" y2="720" stroke="rgba(245,196,0,0.28)" stroke-width="0.5"/><line x1="0" y1="750" x2="720" y2="750" stroke="rgba(245,196,0,0.28)" stroke-width="0.5"/><line x1="0" y1="780" x2="720" y2="780" stroke="rgba(245,196,0,0.28)" stroke-width="0.5"/><line x1="0" y1="810" x2="720" y2="810" stroke="rgba(245,196,0,0.28)" stroke-width="0.5"/><line x1="0" y1="840" x2="720" y2="840" stroke="rgba(245,196,0,0.28)" stroke-width="0.5"/><line x1="0" y1="870" x2="720" y2="870" stroke="rgba(245,196,0,0.28)" stroke-width="0.5"/><line x1="0" y1="900" x2="720" y2="900" stroke="rgba(245,196,0,0.28)" stroke-width="0.5"/></g>
  <rect x="48" y="48" width="624" height="804" fill="none" stroke="#F4F1E6" stroke-opacity="0.35" stroke-width="1"/>
  <line x1="360" y1="48" x2="360" y2="852" stroke="#F5C400" stroke-opacity="0.25" stroke-dasharray="4 8"/>
  <line x1="48" y1="450" x2="672" y2="450" stroke="#F5C400" stroke-opacity="0.25" stroke-dasharray="4 8"/>
  <circle cx="360" cy="340" r="92" fill="none" stroke="#F4F1E6" stroke-width="1.4"/>
  <path d="M248 620c18-92 62-150 112-150s94 58 112 150" fill="none" stroke="#F4F1E6" stroke-width="1.4"/>
  <rect x="250" y="700" width="220" height="1" fill="#F5C400"/>
  <text x="360" y="732" text-anchor="middle" fill="#F4F1E6" font-family="Space Grotesk, sans-serif" font-size="22">SAHAN RANASINGHE</text>
  <text x="360" y="758" text-anchor="middle" fill="#9AA8C4" font-family="IBM Plex Mono, monospace" font-size="11" letter-spacing="2">ENGINEER · INVENTOR · ENTREPRENEUR</text>
  
    <g>
      <rect x="12" y="12" width="148" height="22" fill="#071530" stroke="#F5C400" stroke-width="0.8"/>
      <text x="20" y="27" fill="#F5C400" font-family="IBM Plex Mono, ui-monospace, monospace" font-size="9" letter-spacing="1.4">PORTRAIT PLACEHOLDER</text>
    </g>
</svg>