<svg xmlns="http://www.w3.org/2000/svg" viewBox="0 0 720 540" width="720" height="540" role="img">
  <rect width="720" height="540" fill="#0B1C42"/>
  <g><line x1="0" y1="0" x2="0" y2="540" stroke="rgba(245,196,0,0.28)" stroke-width="0.5"/><line x1="32" y1="0" x2="32" y2="540" stroke="rgba(245,196,0,0.28)" stroke-width="0.5"/><line x1="64" y1="0" x2="64" y2="540" stroke="rgba(245,196,0,0.28)" stroke-width="0.5"/><line x1="96" y1="0" x2="96" y2="540" stroke="rgba(245,196,0,0.28)" stroke-width="0.5"/><line x1="128" y1="0" x2="128" y2="540" stroke="rgba(245,196,0,0.28)" stroke-width="0.5"/><line x1="160" y1="0" x2="160" y2="540" stroke="rgba(245,196,0,0.28)" stroke-width="0.5"/><line x1="192" y1="0" x2="192" y2="540" stroke="rgba(245,196,0,0.28)" stroke-width="0.5"/><line x1="224" y1="0" x2="224" y2="540" stroke="rgba(245,196,0,0.28)" stroke-width="0.5"/><line x1="256" y1="0" x2="256" y2="540" stroke="rgba(245,196,0,0.28)" stroke-width="0.5"/><line x1="288" y1="0" x2="288" y2="540" stroke="rgba(245,196,0,0.28)" stroke-width="0.5"/><line x1="320" y1="0" x2="320" y2="540" stroke="rgba(245,196,0,0.28)" stroke-width="0.5"/><line x1="352" y1="0" x2="352" y2="540" stroke="rgba(245,196,0,0.28)" stroke-width="0.5"/><line x1="384" y1="0" x2="384" y2="540" stroke="rgba(245,196,0,0.28)" stroke-width="0.5"/><line x1="416" y1="0" x2="416" y2="540" stroke="rgba(245,196,0,0.28)" stroke-width="0.5"/><line x1="448" y1="0" x2="448" y2="540" stroke="rgba(245,196,0,0.28)" stroke-width="0.5"/><line x1="480" y1="0" x2="480" y2="540" stroke="rgba(245,196,0,0.28)" stroke-width="0.5"/><line x1="512" y1="0" x2="512" y2="540" stroke="rgba(245,196,0,0.28)" stroke-width="0.5"/><line x1="544" y1="0" x2="544" y2="540" stroke="rgba(245,196,0,0.28)" stroke-width="0.5"/><line x1="576" y1="0" x2="576" y2="540" stroke="rgba(245,196,0,0.28)" stroke-width="0.5"/><line x1="608" y1="0" x2="608" y2="540" stroke="rgba(245,196,0,0.28)" stroke-width="0.5"/><line x1="640" y1="0" x2="640" y2="540" stroke="rgba(245,196,0,0.28)" stroke-width="0.5"/><line x1="672" y1="0" x2="672" y2="540" stroke="rgba(245,196,0,0.28)" stroke-width="0.5"/><line x1="704" y1="0" x2="704" y2="540" stroke="rgba(245,196,0,0.28)" stroke-width="0.5"/><line x1="0" y1="0" x2="720" y2="0" stroke="rgba(245,196,0,0.28)" stroke-width="0.5"/><line x1="0" y1="32" x2="720" y2="32" stroke="rgba(245,196,0,0.28)" stroke-width="0.5"/><line x1="0" y1="64" x2="720" y2="64" stroke="rgba(245,196,0,0.28)" stroke-width="0.5"/><line x1="0" y1="96" x2="720" y2="96" stroke="rgba(245,196,0,0.28)" stroke-width="0.5"/><line x1="0" y1="128" x2="720" y2="128" stroke="rgba(245,196,0,0.28)" stroke-width="0.5"/><line x1="0" y1="160" x2="720" y2="160" stroke="rgba(245,196,0,0.28)" stroke-width="0.5"/><line x1="0" y1="192" x2="720" y2="192" stroke="rgba(245,196,0,0.28)" stroke-width="0.5"/><line x1="0" y1="224" x2="720" y2="224" stroke="rgba(245,196,0,0.28)" stroke-width="0.5"/><line x1="0" y1="256" x2="720" y2="256" stroke="rgba(245,196,0,0.28)" stroke-width="0.5"/><line x1="0" y1="288" x2="720" y2="288" stroke="rgba(245,196,0,0.28)" stroke-width="0.5"/><line x1="0" y1="320" x2="720" y2="320" stroke="rgba(245,196,0,0.28)" stroke-width="0.5"/><line x1="0" y1="352" x2="720" y2="352" stroke="rgba(245,196,0,0.28)" stroke-width="0.5"/><line x1="0" y1="384" x2="720" y2="384" stroke="rgba(245,196,0,0.28)" stroke-width="0.5"/><line x1="0" y1="416" x2="720" y2="416" stroke="rgba(245,196,0,0.28)" stroke-width="0.5"/><line x1="0" y1="448" x2="720" y2="448" stroke="rgba(245,196,0,0.28)" stroke-width="0.5"/><line x1="0" y1="480" x2="720" y2="480" stroke="rgba(245,196,0,0.28)" stroke-width="0.5"/><line x1="0" y1="512" x2="720" y2="512" stroke="rgba(245,196,0,0.28)" stroke-width="0.5"/></g>
  
    <g fill="none" stroke="#F5C400" stroke-width="1.2" opacity="0.7">
      <path d="M28 46V28h18"/>
      <path d="M674 28h18v18"/>
      <path d="M28 384v18h18"/>
      <path d="M674 402h18v-18"/>
    </g>
  <g fill="none" stroke="#F4F1E6" stroke-width="1.5">
    <rect x="180" y="90" width="300" height="240" rx="4"/>
    <circle cx="330" cy="210" r="58"/>
    <path d="M330 152v116M272 210h116"/>
    <path d="M480 140h80v70H480z"/>
    <path d="M180 280h-55v50"/>
    <path d="M220 120h60M220 150h90"/>
  </g>
  <g fill="#9AA8C4" font-family="IBM Plex Mono, monospace" font-size="11">
    <text x="330" y="360" text-anchor="middle">LOW-COST VENTILATOR CONCEPT</text>
    <text x="520" y="130" text-anchor="middle">VALVE</text>
  </g>
  
    <g>
      <rect x="0" y="430" width="720" height="110" fill="#071530" fill-opacity="0.92"/>
      <rect x="0" y="430" width="6" height="110" fill="#F5C400"/>
      <text x="28" y="468" fill="#F5C400" font-family="IBM Plex Mono, ui-monospace, monospace"
            font-size="11" letter-spacing="2">DEV PLACEHOLDER</text>
      <text x="28" y="498" fill="#F4F1E6" font-family="Space Grotesk, sans-serif" font-size="26">Open-Source Ventilator</text>
      <text x="28" y="524" fill="#9AA8C4" font-family="Manrope, sans-serif" font-size="14">Collaborative low-cost ventilator development work.</text>
    </g>
</svg>